<?xml version="1.0" standalone="no"?><svg xmlns="http://www.w3.org/2000/svg" viewBox="0 0 1440 320"><path fill="#1aa7d6" fill-opacity="0.3" d="M0,96L24,112C48,128,96,160,144,160C192,160,240,128,288,106.7C336,85,384,75,432,69.3C480,64,528,64,576,106.7C624,149,672,235,720,245.3C768,256,816,192,864,154.7C912,117,960,107,1008,106.7C1056,107,1104,117,1152,138.7C1200,160,1248,192,1296,192C1344,192,1392,160,1416,144L1440,128L1440,320L1416,320C1392,320,1344,320,1296,320C1248,320,1200,320,1152,320C1104,320,1056,320,1008,320C960,320,912,320,864,320C816,320,768,320,720,320C672,320,624,320,576,320C528,320,480,320,432,320C384,320,336,320,288,320C240,320,192,320,144,320C96,320,48,320,24,320L0,320Z"></path></svg>